# Blender v2.92.0 OBJ File: ''
# www.blender.org
mtllib LeftArm.mtl
o skeleton.005_skeleton.008
v -1.565329 -2.510746 -0.992048
v -0.679628 -0.919246 -0.686346
v -1.171329 -2.668146 -1.023748
v 0.766272 1.326453 -0.048746
v 0.320071 1.442353 -0.347746
v 1.150472 4.318152 0.335854
v 1.583072 4.191453 0.631755
v -0.039529 -4.458146 -1.033148
v -0.535929 -4.592746 -0.771048
v -0.599328 -4.493446 -0.966848
v -0.888928 -4.767446 -0.861548
v -0.883128 -4.740246 -0.563848
v -1.441929 -4.504646 -0.581148
v -1.331729 -4.402147 -0.273648
v -1.260828 -4.032047 -0.180148
v -1.596229 -4.294946 -0.389548
v 2.239672 6.818452 1.996156
v 2.764671 6.560552 1.700656
v 2.229472 6.990352 1.778256
v 2.459472 5.824552 1.728556
v 2.195672 5.837352 1.925656
v 2.015771 5.342453 1.453956
v -0.401829 -3.495846 -0.513848
v -0.178629 -3.316246 -0.713648
v -0.147328 -2.889646 -0.772648
v 2.277172 6.521352 2.176956
v -1.565028 -2.449846 -0.873548
v -1.919028 -2.935046 -0.903848
v -1.511128 -3.066546 -0.637248
v -1.311829 -2.612046 -0.650448
v -0.723329 -3.760246 -0.524348
v -0.320429 -4.200746 -0.528448
v -0.342628 -3.679746 -0.505948
v -0.421928 -4.528846 -0.643148
v 0.852071 5.575253 1.182656
v 0.945072 6.359453 0.897656
v 1.208471 6.198153 0.670656
v -0.793529 -4.615446 -0.306548
v 0.881971 4.352953 0.417454
v 0.668772 4.344653 0.838954
v 0.312772 1.315853 0.581454
v 1.038171 4.170652 1.280254
v 0.015772 1.484753 0.210454
v -2.014329 -3.836546 -1.067748
v -1.738628 -3.937746 -1.176048
v -1.817028 -4.304446 -0.844548
v -0.060328 -4.213246 -0.615848
v 0.046871 -4.209046 -1.067348
v -0.129728 -3.591346 -0.987648
v -0.129229 -3.660146 -0.683648
v -1.831629 -3.559147 -0.321948
v -1.945628 -3.907147 -0.015748
v 2.275472 7.078852 1.547056
v 1.973072 7.188353 1.429556
v -1.610828 -3.968146 -1.239848
v -1.497128 -3.580046 -1.192548
v -1.277828 -3.971046 -1.004848
v -1.327028 -4.093846 -1.033248
v 2.155272 7.114653 0.948956
v 2.705071 6.853153 1.172656
v 2.349572 6.520253 0.456456
v -2.251429 -3.485246 -0.720848
v -0.736428 -4.219447 -0.221548
v -0.050928 -4.411546 -1.090348
v -0.813628 -4.100946 -1.089848
v -0.473329 -3.791846 -1.079448
v 1.581872 4.110653 1.000254
v 0.586271 1.285952 0.408154
v 0.787772 1.288254 0.210454
v -0.466529 -1.016747 -0.293446
v 1.913072 5.801153 2.137656
v 0.114172 1.479953 -0.234646
v -1.731528 -3.496146 -1.191448
v -1.621029 -3.142046 -1.151348
v -2.151229 -3.858547 -0.152748
v -2.135828 -4.299847 -0.334648
v 1.791771 6.329153 0.498256
v 1.931972 6.668653 0.418356
v -0.589828 -3.529546 -1.037448
v -0.222829 -3.258746 -0.943848
v 2.803572 6.252253 0.804456
v 2.474072 5.841753 0.684956
v 2.197671 6.159153 0.465356
v 1.376572 6.167552 1.856756
v 1.658872 6.772852 2.026356
v 0.938072 6.709652 1.499456
v -1.863528 -2.951146 -1.023048
v -1.938628 -3.348746 -1.095748
v -2.322429 -3.785646 -0.680448
v 0.224972 -1.116046 -0.531547
v -0.774428 -2.776246 -1.005448
v -0.311728 -1.008446 -0.824948
v 0.212671 -1.158247 -0.368046
v 0.036471 -1.162247 -0.168847
v -1.093028 -3.289146 -1.025448
v -2.132528 -3.651647 -0.374648
v -2.173529 -4.106046 -0.470148
v 2.520472 7.016553 1.365756
v 2.211671 7.186053 1.246356
v 0.869572 6.234053 1.397656
v 0.889572 6.710853 1.191256
v 1.292672 6.621452 0.603556
v 1.342971 7.038753 1.209356
v 1.270671 5.480953 1.563655
v 1.682672 5.343052 1.736256
v -0.227828 -2.872046 -0.907348
v -0.674329 -3.410946 -1.007348
v -1.215129 -4.330646 -0.941248
v -1.214828 -4.494546 -0.762548
v -1.658829 -4.392146 -0.612748
v 2.592371 5.697853 1.101556
v -1.693628 -4.398246 -0.948148
v -0.017928 -4.403546 -0.953848
v -0.680429 -3.525146 -0.394848
v 2.805672 6.221252 1.727256
v -1.412429 -4.452146 -0.807148
v -2.059328 -4.344846 -0.683948
v -1.962729 -4.320646 -0.778448
v -2.286029 -3.999746 -0.814648
v 1.765672 7.171653 1.451556
v 1.417471 7.107753 1.387956
v 1.604872 7.009852 1.792556
v -0.568528 -4.832546 -0.612748
v -1.040929 -3.359846 -0.412948
v -1.215029 -3.676046 -0.382848
v -0.724628 -4.653446 -1.143248
v -0.669429 -1.961646 -0.951147
v -0.707929 -2.782447 -0.298348
v -0.285929 -1.115447 -0.009148
v 1.391572 4.102653 1.224354
v -0.949828 -4.521746 -1.014348
v 1.370071 6.814553 2.015056
v 1.495771 4.087453 1.148454
v -0.453528 -2.863747 -0.443748
vn -0.0906 0.2329 -0.9683
vn -0.1959 0.2341 -0.9523
vn 0.0282 0.1305 -0.9910
vn 0.8594 -0.1053 -0.5003
vn 0.1002 0.1871 -0.9772
vn 0.2400 0.0265 -0.9704
vn 0.8640 -0.2640 -0.4288
vn -0.0115 -0.8392 -0.5437
vn 0.0026 -0.8915 -0.4530
vn -0.0608 -0.7129 -0.6986
vn -0.2031 -0.9777 -0.0534
vn -0.3353 -0.9000 0.2785
vn -0.3627 -0.9201 0.1480
vn -0.1625 -0.2006 0.9661
vn -0.1403 -0.3700 0.9184
vn -0.2212 -0.7105 0.6681
vn 0.2232 0.6293 0.7444
vn 0.6477 0.5119 0.5643
vn 0.6904 0.5447 0.4762
vn 0.5860 -0.6504 0.4833
vn 0.5012 -0.5517 0.6666
vn 0.5594 -0.6084 0.5630
vn 0.5665 0.0877 0.8194
vn 0.6142 0.1066 0.7819
vn 0.6952 -0.0859 0.7137
vn 0.4116 0.0947 0.9064
vn -0.7218 0.6163 -0.3149
vn -0.7291 0.5886 -0.3492
vn -0.8009 0.4165 -0.4302
vn -0.5354 0.2292 0.8129
vn -0.4143 0.3860 0.8242
vn -0.3371 0.3831 0.8600
vn -0.4922 0.1498 0.8575
vn 0.0627 -0.3545 0.9330
vn 0.2814 0.1388 0.9495
vn 0.3473 -0.0004 0.9378
vn 0.4081 -0.6706 0.6194
vn 0.6433 -0.3653 0.6728
vn 0.4291 -0.7785 0.4580
vn -0.9005 0.0941 -0.4245
vn -0.7187 0.0667 -0.6921
vn -0.6058 0.0288 -0.7951
vn 0.3894 -0.8959 0.2138
vn 0.4390 -0.8589 0.2637
vn -0.5971 0.2668 -0.7565
vn -0.8909 0.2797 -0.3578
vn -0.7854 0.0410 0.6176
vn -0.3753 -0.1306 0.9177
vn -0.7474 -0.0081 0.6643
vn -0.8085 0.0429 0.5869
vn -0.5746 -0.1498 -0.8046
vn -0.5254 -0.2837 -0.8022
vn -0.5204 -0.4781 -0.7076
vn 0.9847 0.0614 0.1630
vn 0.9858 -0.1680 -0.0066
vn 0.9719 0.2111 0.1043
vn 0.9846 0.1731 -0.0240
vn -0.0834 0.6490 0.7562
vn -0.1034 0.6878 0.7185
vn 0.2591 0.5051 0.8232
vn 0.1493 0.8651 0.4789
vn 0.3274 0.8864 0.3274
vn 0.0306 0.9858 0.1650
vn 0.1066 -0.1978 -0.9744
vn 0.2434 0.0983 -0.9649
vn 0.5761 -0.0514 -0.8157
vn 0.3819 -0.3722 -0.8459
vn 0.1192 0.8978 -0.4240
vn 0.5897 0.6614 -0.4635
vn 0.5183 0.5973 -0.6121
vn -0.3878 0.6629 0.6404
vn -0.0221 -0.2068 0.9781
vn -0.0162 -0.2249 0.9743
vn -0.0232 -0.2844 -0.9584
vn -0.1888 -0.0917 -0.9777
vn 0.0611 0.1217 -0.9907
vn 0.1211 0.1225 -0.9851
vn 0.8804 -0.4450 0.1637
vn 0.6006 -0.3468 0.7204
vn 0.9239 -0.3046 0.2314
vn -0.7564 0.1199 0.6431
vn 0.5504 -0.5330 0.6426
vn -0.9078 0.3106 -0.2817
vn -0.2499 0.0636 -0.9662
vn -0.0475 0.1813 -0.9823
vn -0.5763 -0.3286 0.7483
vn 0.4792 0.0734 0.8747
vn -0.1784 0.0002 -0.9840
vn -0.0554 0.3285 -0.9429
vn 0.2366 -0.1610 -0.9582
vn 0.0160 0.1857 -0.9825
vn 0.0930 0.1785 -0.9795
vn 0.1405 0.1834 -0.9730
vn 0.9446 -0.1700 -0.2808
vn 0.6693 -0.3501 -0.6553
vn 0.2063 -0.0807 -0.9752
vn -0.6045 -0.0967 0.7907
vn -0.2675 0.2080 0.9408
vn -0.6352 -0.0048 0.7723
vn -0.5943 0.3400 -0.7288
vn -0.7829 0.1592 -0.6015
vn -0.6078 0.1864 -0.7719
vn -0.7578 0.1818 -0.6267
vn -0.3745 0.2839 -0.8827
vn 0.7457 -0.0545 -0.6640
vn 0.1839 0.0378 -0.9822
vn 0.0399 0.1489 -0.9880
vn -0.6775 0.6549 -0.3348
vn 0.6964 -0.3076 0.6483
vn 0.5378 -0.2904 0.7915
vn 0.1598 0.0824 -0.9837
vn -0.9365 0.1089 0.3333
vn -0.9685 -0.2001 0.1479
vn -0.9975 -0.0015 0.0712
vn -0.4479 -0.1679 0.8782
vn 0.5052 0.8626 0.0260
vn 0.2748 0.9615 0.0053
vn -0.9977 0.0511 -0.0447
vn -0.9820 0.1083 0.1550
vn -0.9991 0.0418 -0.0003
vn -0.4732 0.4033 -0.7833
vn -0.3980 0.8797 -0.2602
vn -0.5485 -0.2196 0.8068
vn 0.2142 -0.5622 0.7988
vn 0.6050 0.0135 -0.7961
vn 0.0517 0.1111 -0.9925
vn -0.7093 -0.5201 -0.4758
vn -0.6483 -0.5616 -0.5140
vn -0.6218 -0.5156 -0.5895
vn -0.2908 -0.9471 0.1359
vn -0.0012 -0.9000 0.4358
vn 0.8160 -0.5657 0.1191
vn -0.2201 -0.9593 -0.1767
vn -0.3799 -0.9244 -0.0333
vn 0.9600 -0.2619 0.0992
vn 0.9054 -0.3475 -0.2439
vn 0.2034 -0.1552 0.9667
vn -0.9893 0.0217 -0.1440
vn 0.6068 -0.1107 0.7871
vn 0.8863 -0.3705 0.2779
vn 0.9851 0.1714 -0.0162
vn 0.9893 0.1458 -0.0072
vn 0.9226 -0.1553 -0.3532
vn 0.9562 0.0078 -0.2927
vn -0.1098 -0.9649 -0.2385
vn -0.1509 -0.9584 -0.2423
vn -0.0671 -0.9844 -0.1628
vn -0.0090 -0.9665 -0.2567
vn -0.9301 0.3021 -0.2089
vn -0.9167 0.3422 -0.2063
vn -0.5999 -0.2950 -0.7437
vn -0.9132 -0.0235 0.4069
vn -0.8982 -0.4062 0.1680
vn 0.7372 0.4866 0.4687
vn -0.3860 -0.8066 0.4477
vn -0.1043 0.9900 0.0951
vn -0.4054 0.9029 0.1429
vn -0.1022 0.8612 0.4978
vn 0.9855 0.1411 -0.0943
vn 0.0718 -0.5445 -0.8357
vn 0.1787 -0.5552 -0.8123
vn -0.9102 -0.4135 -0.0244
vn 0.1598 0.0217 0.9869
vn -0.4065 -0.5311 -0.7434
vn -0.2490 0.1001 0.9633
vn 0.0962 0.2182 0.9712
vn -0.6783 -0.1574 0.7177
vn -0.6839 -0.1556 0.7128
vn -0.3077 0.7363 0.6027
vn 0.0717 -0.9384 -0.3379
vn -0.1015 -0.9866 -0.1274
vn -0.0445 0.1446 -0.9885
vn -0.1029 -0.0778 0.9916
vn -0.1009 -0.1815 0.9782
vn 0.9773 -0.2104 -0.0247
vn 0.2206 -0.3400 0.9142
vn -0.6049 -0.4827 -0.6333
vn -0.6110 -0.5459 -0.5733
vn -0.6324 -0.5160 -0.5777
vn 0.6068 0.1848 0.7731
vn -0.2613 0.7169 0.6464
vn 0.5783 -0.0433 -0.8147
vn 0.3579 -0.3211 0.8768
vn 0.1529 -0.8454 0.5118
vn 0.1263 -0.8575 0.4987
vn -0.6226 -0.3951 -0.6755
vn 0.0699 -0.6589 0.7490
vn -0.2422 0.7463 0.6199
vn 0.6535 -0.4310 0.6222
vn 0.5118 0.1808 -0.8399
vn -0.6582 0.6754 -0.3325
vn -0.1477 -0.9377 0.3145
vn 0.8394 -0.3429 -0.4216
vn 0.8147 -0.3925 -0.4268
vn 0.8508 -0.1468 -0.5046
vn 0.8280 -0.0312 -0.5599
vn -0.4053 -0.0327 -0.9136
vn -0.4949 0.0043 -0.8690
vn -0.6033 0.7870 0.1290
vn 0.6198 -0.3362 0.7091
vn 0.6816 -0.2462 0.6891
vn -0.2959 -0.5432 -0.7858
vn -0.2690 -0.3828 -0.8838
vn 0.7715 -0.4202 -0.4777
vn 0.5838 -0.1788 0.7919
vn 0.3638 0.4799 0.7983
vn 0.3866 0.5000 0.7750
vn 0.2815 0.1387 0.9495
vn 0.7909 0.2178 0.5718
vn -0.2726 -0.1394 -0.9520
vn -0.5593 -0.4057 -0.7228
vn -0.8671 0.2619 0.4237
vn -0.2930 -0.8162 0.4979
vn -0.9798 -0.1997 -0.0130
vn 0.3373 -0.9272 0.1626
vn -0.4954 -0.5728 -0.6531
vn 0.6952 0.4550 -0.5565
vn -0.8376 0.2069 0.5056
vn -0.7885 0.3405 0.5122
vn 0.2918 -0.5668 -0.7705
vn 0.8243 -0.3473 -0.4472
usemtl Bones___Vray.001
s 1
f 1//1 2//2 3//3
f 4//4 5//5 6//6
f 6//6 7//7 4//4
f 8//8 9//9 10//10
f 11//11 12//12 13//13
f 14//14 15//15 16//16
f 17//17 18//18 19//19
f 20//20 21//21 22//22
f 23//23 24//24 25//25
f 18//18 17//17 26//26
f 27//27 1//28 28//29
f 27//30 28//31 29//32
f 30//33 27//30 29//32
f 31//34 32//35 33//36
f 32//37 34//38 8//39
f 35//40 36//41 37//42
f 34//43 38//44 12//44
f 35//40 37//42 39//45
f 39//45 40//46 35//40
f 41//47 42//48 40//49
f 40//49 43//50 41//47
f 44//51 45//52 46//53
f 47//54 48//55 49//56
f 47//54 49//56 50//57
f 51//58 52//59 15//60
f 19//61 53//62 54//63
f 55//64 56//65 57//66
f 57//66 58//67 55//64
f 59//68 60//69 61//70
f 29//32 28//31 62//71
f 14//14 38//72 63//73
f 63//73 15//15 14//14
f 64//74 65//75 66//76
f 48//77 64//74 66//76
f 67//78 68//79 69//80
f 30//33 70//81 27//30
f 21//21 26//26 71//82
f 40//46 39//45 72//83
f 73//84 74//85 56//65
f 52//86 75//86 76//86
f 33//36 32//35 47//87
f 77//88 78//89 61//90
f 79//91 80//92 49//93
f 79//91 49//93 66//76
f 61//90 81//94 82//95
f 83//96 61//90 82//95
f 84//97 85//98 86//99
f 74//85 87//100 1//1
f 62//101 28//29 88//102
f 62//101 88//102 44//51
f 44//51 89//103 62//101
f 5//5 72//104 39//45
f 90//105 91//106 92//107
f 70//108 1//28 27//27
f 93//109 69//80 68//79
f 93//109 68//79 94//110
f 3//3 95//111 74//85
f 96//112 97//113 75//114
f 84//97 71//115 85//98
f 98//116 60//69 59//68
f 59//68 99//117 98//116
f 100//118 86//119 101//120
f 102//121 103//122 59//68
f 78//89 102//121 59//68
f 104//123 105//124 71//115
f 106//125 107//126 91//106
f 58//127 108//128 109//129
f 110//130 16//16 76//131
f 111//132 20//20 22//22
f 6//6 39//45 77//88
f 40//49 42//48 104//123
f 110//130 46//133 112//134
f 48//55 113//135 8//136
f 114//137 31//34 33//36
f 36//138 35//40 100//118
f 115//139 26//26 21//21
f 20//20 115//140 21//21
f 44//51 88//102 73//84
f 73//84 45//52 44//51
f 13//13 110//130 112//134
f 81//94 60//141 18//142
f 106//125 25//143 24//144
f 116//145 109//146 13//13
f 46//133 110//130 117//147
f 117//147 118//148 46//133
f 6//6 83//96 82//95
f 82//95 7//7 6//6
f 90//105 106//125 91//106
f 43//149 72//83 2//150
f 64//74 10//10 65//75
f 44//51 119//151 89//103
f 89//152 119//153 97//113
f 60//154 19//19 18//18
f 13//13 14//155 16//16
f 13//13 12//12 14//155
f 16//16 110//130 13//13
f 59//68 103//122 120//156
f 59//68 120//156 54//63
f 59//68 54//63 99//117
f 121//157 122//158 120//156
f 50//57 49//56 80//159
f 58//67 109//160 116//161
f 117//162 97//113 119//153
f 5//5 92//107 72//104
f 34//163 12//163 123//163
f 92//107 2//2 72//104
f 113//135 48//55 47//54
f 44//51 118//164 119//151
f 114//137 124//165 125//166
f 81//94 18//142 115//140
f 26//26 85//98 71//115
f 104//123 84//97 100//167
f 104//123 100//167 35//168
f 19//61 122//158 17//17
f 96//169 51//58 62//71
f 126//170 123//171 11//11
f 3//3 127//172 91//106
f 70//81 128//173 129//174
f 93//175 25//143 90//105
f 104//123 42//48 130//176
f 66//76 49//93 48//77
f 11//177 131//178 126//179
f 24//144 80//159 106//125
f 115//140 20//20 111//132
f 112//134 116//145 13//13
f 50//180 24//24 23//23
f 50//180 23//23 33//36
f 81//94 115//140 111//132
f 52//59 51//58 96//169
f 96//169 75//181 52//59
f 87//100 88//102 28//29
f 108//182 58//67 57//66
f 41//183 68//79 130//176
f 67//78 7//7 82//95
f 6//6 77//88 83//96
f 41//47 43//50 70//81
f 70//81 129//174 41//47
f 113//184 47//185 32//37
f 45//52 55//64 112//186
f 76//131 16//16 52//187
f 29//32 51//58 125//166
f 98//116 53//62 19//61
f 73//84 56//65 55//64
f 103//122 121//157 120//156
f 99//117 54//63 53//62
f 91//106 107//126 95//111
f 91//106 95//111 3//3
f 66//76 65//75 79//91
f 4//4 69//80 93//175
f 4//4 7//7 69//80
f 93//175 90//105 4//4
f 17//17 132//188 85//98
f 111//132 22//22 133//189
f 6//6 5//5 39//45
f 56//65 95//111 65//190
f 3//3 74//85 1//1
f 84//97 86//99 100//167
f 102//121 101//191 103//122
f 107//126 106//125 80//92
f 102//121 36//41 101//191
f 132//192 86//192 85//192
f 9//193 123//194 126//195
f 126//195 10//196 9//193
f 107//126 79//91 65//75
f 43//149 40//46 72//83
f 133//189 22//22 105//124
f 105//124 130//176 133//189
f 37//42 77//88 39//45
f 67//78 133//189 68//79
f 65//75 95//111 107//126
f 131//197 65//75 126//198
f 62//71 51//58 29//32
f 121//157 103//122 86//199
f 121//157 86//199 132//188
f 132//188 122//158 121//157
f 107//126 80//92 79//91
f 102//121 78//89 77//88
f 77//88 37//42 102//121
f 15//60 125//166 51//58
f 63//200 38//201 34//38
f 63//200 34//38 32//37
f 56//202 65//75 57//203
f 7//7 67//78 69//80
f 133//189 67//78 111//132
f 34//204 123//194 9//193
f 134//205 25//25 93//109
f 94//110 134//205 93//109
f 65//190 10//196 126//195
f 31//206 63//207 32//208
f 99//117 53//62 98//116
f 101//191 86//199 103//122
f 55//64 45//52 73//84
f 60//154 98//209 19//19
f 125//166 124//165 29//32
f 15//15 52//187 16//16
f 45//52 112//186 46//53
f 10//10 64//74 8//8
f 90//105 92//107 5//5
f 5//5 4//4 90//105
f 127//172 3//3 2//2
f 2//2 92//107 127//172
f 82//95 111//132 67//78
f 130//176 42//48 41//183
f 57//203 65//75 108//210
f 109//129 11//177 13//211
f 134//205 94//110 128//173
f 134//205 128//173 114//137
f 23//23 134//205 114//137
f 111//132 82//95 81//94
f 1//28 87//100 28//29
f 134//205 23//23 25//25
f 115//139 18//18 26//26
f 62//212 89//152 96//112
f 12//12 38//213 14//155
f 113//184 32//37 8//39
f 130//176 105//124 104//123
f 25//143 106//125 90//105
f 70//81 30//33 128//173
f 76//214 97//113 117//162
f 44//51 46//53 118//164
f 128//173 124//165 114//137
f 19//61 120//156 122//158
f 54//63 120//156 19//61
f 131//178 11//177 109//129
f 109//129 108//128 131//178
f 61//70 78//89 59//68
f 125//166 31//34 114//137
f 11//11 123//171 12//12
f 8//39 34//43 9//215
f 129//174 94//110 68//79
f 68//79 41//183 129//174
f 17//17 122//158 132//188
f 129//174 128//173 94//110
f 117//216 119//151 118//164
f 74//85 95//111 56//65
f 80//159 24//144 50//57
f 47//87 50//180 33//36
f 61//90 83//96 77//88
f 88//102 87//100 74//85
f 74//85 73//84 88//102
f 81//217 61//70 60//69
f 97//113 96//112 89//152
f 15//60 63//207 31//206
f 31//206 125//166 15//60
f 131//197 108//210 65//75
f 2//218 70//81 43//50
f 91//106 127//172 92//107
f 70//81 2//218 1//219
f 68//79 133//189 130//176
f 112//220 55//64 58//67
f 58//67 116//161 112//220
f 97//113 76//214 75//114
f 124//165 128//173 30//33
f 30//33 29//32 124//165
f 105//124 22//22 21//21
f 21//21 71//82 105//124
f 101//120 36//138 100//118
f 102//121 37//42 36//41
f 71//115 84//97 104//123
f 23//23 114//137 33//36
f 8//136 64//221 48//55
f 76//131 117//147 110//130
f 40//49 104//123 35//168
f 17//17 85//98 26//26
